<svg width="154.81900939941406px" height="121.05263061523438px" xmlns="http://www.w3.org/2000/svg" viewBox="172.59049530029296 14.473684692382811 154.81900939941406 121.05263061523438" style="background:#596886" preserveAspectRatio="xMidYMid"><defs><filter id="editing-hover" x="-100%" y="-100%" width="300%" height="300%"><feFlood flood-color="#052b4a" result="flood"></feFlood><feComposite operator="in" in2="SourceAlpha" in="flood" result="shadow"></feComposite><feOffset dx="-4" dy="-4" in="SourceGraphic" result="offset-1"></feOffset><feOffset dx="4" dy="4" in="shadow" result="offset-2"></feOffset><feMerge><feMergeNode in="offset-2"></feMergeNode><feMergeNode in="offset-1"></feMergeNode></feMerge></filter></defs><g filter="url(#editing-hover)"><g transform="translate(200.11502385139465, 96.7600040435791)"><path d="M2.30-9.47L2.30-9.47L2.30-9.47Q2.30-11.97 2.94-15.17L2.94-15.17L8.13-42.24L22.27-42.24L17.15-14.98L17.15-14.98Q16.58-11.97 16.58-9.76L16.58-9.76L16.58-9.76Q16.58-7.55 17.50-6.40L17.50-6.40L17.50-6.40Q18.43-5.25 20.16-5.25L20.16-5.25L20.16-5.25Q21.89-5.25 22.98-5.70L22.98-5.70L22.98-5.70Q24.06-6.14 24.96-7.23L24.96-7.23L24.96-7.23Q26.69-9.41 27.78-14.98L27.78-14.98L32.96-42.24L42.62-42.24L37.50-15.04L37.50-15.04Q35.71-5.95 30.78-2.30L30.78-2.30L30.78-2.30Q25.98 1.28 16.51 1.28L16.51 1.28L16.51 1.28Q9.41 1.28 5.63-1.79L5.63-1.79L5.63-1.79Q2.30-4.48 2.30-9.47ZM49.34 0L41.98 0L53.57-42.24L66.94-42.24L69.89-18.11L81.79-42.24L92.99-42.24L94.14-10.62L94.14-10.62Q94.40-4.35 97.47-2.43L97.47-2.43L97.47-2.43Q96.77-1.15 94.72 0.06L94.72 0.06L94.72 0.06Q92.67 1.28 89.95 1.28L89.95 1.28L89.95 1.28Q87.23 1.28 85.63 0.51L85.63 0.51L85.63 0.51Q84.03-0.26 83.14-1.54L83.14-1.54L83.14-1.54Q81.54-3.84 81.54-8.26L81.54-8.26L81.54-28.03L68.93 0L60.99 0L56.51-28.74L49.34 0Z" fill="#ffd5af"></path></g></g><style>text {
  font-size: 64px;
  font-family: Arial Black;
  dominant-baseline: central;
  text-anchor: middle;
}</style></svg>